SplineFontDB: 3.2
FontName: Lubricantness-Black
FullName: Lubricantness Black
FamilyName: Lubricantness
Weight: Black
Copyright: Copyright (c) 2024, Zamero Type Foundry
UComments: "2024-9-15: Created with FontForge (http://fontforge.org)"
Version: 001.000
ItalicAngle: 0
UnderlinePosition: -100
UnderlineWidth: 50
Ascent: 800
Descent: 200
InvalidEm: 0
LayerCount: 2
Layer: 0 0 "Back" 1
Layer: 1 0 "Fore" 0
XUID: [1021 474 1118879153 2802]
StyleMap: 0x0000
FSType: 0
OS2Version: 0
OS2_WeightWidthSlopeOnly: 0
OS2_UseTypoMetrics: 1
CreationTime: 1726417385
ModificationTime: 1726767038
PfmFamily: 17
TTFWeight: 900
TTFWidth: 5
LineGap: 90
VLineGap: 90
OS2TypoAscent: 0
OS2TypoAOffset: 1
OS2TypoDescent: 0
OS2TypoDOffset: 1
OS2TypoLinegap: 90
OS2WinAscent: 0
OS2WinAOffset: 1
OS2WinDescent: 0
OS2WinDOffset: 1
HheadAscent: 0
HheadAOffset: 1
HheadDescent: 0
HheadDOffset: 1
OS2Vendor: 'ZAM '
Lookup: 258 0 0 "'kern' Horizontal Kerning in Latin lookup 1" { "'kern' Horizontal Kerning in Latin lookup 1-1" [150,15,2] } ['kern' ('DFLT' <'dflt' > 'latn' <'dflt' > ) ]
MarkAttachClasses: 1
DEI: 91125

StartChar: I
Encoding: 73 73 0
Width: 338
Flags: W
HStem: 0 21G<40 298> 711 20G<40 298>
VStem: 40 258<0 731>
LayerCount: 2
Fore
SplineSet
40 0 m 5
 40 731 l 5
 298 731 l 5
 298 0 l 5
 40 0 l 5
EndSplineSet
EndChar

StartChar: O
Encoding: 79 79 1
Width: 795
Flags: W
HStem: -10.0664 106.351<354.989 440.373> 632.583 106.351<354.989 440.373>
VStem: 25 279.487<223.739 502.245> 490.513 279.487<223.739 502.245>
LayerCount: 2
Fore
SplineSet
304.487304688 361.704101562 m 0
 304.487304688 198.522231087 333.171628243 96.2841796875 397.697265625 96.2841796875 c 4
 461.083121888 96.2841796875 490.512695312 198.522231087 490.512695312 361.704101562 c 0
 490.512695312 528.211857423 461.083121888 632.583007812 397.697265625 632.583007812 c 0
 333.171628243 632.583007812 304.487304688 528.211857423 304.487304688 361.704101562 c 0
25 361.93359375 m 0
 25 592.322265625 170.055004151 738.93359375 398 738.93359375 c 0
 625.333333333 738.93359375 770 592.322265625 770 361.93359375 c 0
 770 134.599609375 625.333333333 -10.06640625 398 -10.06640625 c 0
 170.055004151 -10.06640625 25 134.599609375 25 361.93359375 c 0
EndSplineSet
EndChar

StartChar: Q
Encoding: 81 81 2
Width: 795
Flags: W
HStem: -10.0664 106.351<354.989 440.373> 632.583 106.351<354.989 440.373>
VStem: 25 279.487<223.739 502.245> 338.5 126<-116.565 60> 490.513 279.487<223.739 502.245>
LayerCount: 2
Fore
SplineSet
338.5 60 m 5
 464.5 60 l 5
 464.5 13 l 6
 464.5 -79.5 494.5 -137 494.5 -137 c 5
 358.5 -137 l 5
 358.5 -137 338.5 -89.5 338.5 13 c 6
 338.5 60 l 5
EndSplineSet
Refer: 1 79 N 1 0 0 1 0 0 2
EndChar

StartChar: H
Encoding: 72 72 3
Width: 758
Flags: W
HStem: 0 21G<40 298 460 718> 316 96<232 529> 711 20G<40 298 460 718>
VStem: 40 258<0 316 412 731> 232 66<316 412> 460 258<0 316 412 731> 460 69<316 412>
LayerCount: 2
Fore
SplineSet
40 0 m 1xf0
 40 731 l 1
 298 731 l 1
 298 0 l 1
 40 0 l 1xf0
460 0 m 1xe4
 460 731 l 1
 718 731 l 1
 718 0 l 1
 460 0 l 1xe4
232 412 m 5xea
 529 412 l 5
 529 316 l 5
 232 316 l 5
 232 412 l 5xea
EndSplineSet
EndChar

StartChar: L
Encoding: 76 76 4
Width: 590
Flags: W
HStem: 0 106<298 575> 711 20G<40 298>
VStem: 40 258<106 731>
LayerCount: 2
Fore
SplineSet
40 0 m 1
 40 731 l 1
 298 731 l 1
 298 106 l 5
 575 106 l 5
 575 0 l 1
 40 0 l 1
EndSplineSet
EndChar

StartChar: backslash
Encoding: 92 92 5
Width: 366
Flags: W
LayerCount: 2
Fore
SplineSet
365 -200 m 1
 255 -200 l 1
 1 781 l 1
 111 781 l 5
 365 -200 l 1
EndSplineSet
EndChar

StartChar: exclam
Encoding: 33 33 6
Width: 278
Flags: W
HStem: -10.0664 191<60.8125 217.509> 711 20G<10 268>
VStem: 23.5 231<25.6924 144.798>
LayerCount: 2
Fore
SplineSet
23.5 84.93359375 m 4
 23.5 143.600585938 68.611328125 180.93359375 139.5 180.93359375 c 4
 209.77734375 180.93359375 254.5 143.600585938 254.5 84.93359375 c 4
 254.5 26.8779296875 209.77734375 -10.06640625 139.5 -10.06640625 c 4
 68.611328125 -10.06640625 23.5 26.8779296875 23.5 84.93359375 c 4
50 230 m 5
 10 731 l 1
 268 731 l 1
 228 230 l 5
 50 230 l 5
EndSplineSet
EndChar

StartChar: F
Encoding: 70 70 7
Width: 590
Flags: W
HStem: 0 21G<40 298> 286 96<232 529> 625 106<298 575>
VStem: 40 258<0 286 382 625> 232 66<286 382>
LayerCount: 2
Fore
SplineSet
232 382 m 1xe8
 529 382 l 1
 529 286 l 1
 232 286 l 1
 232 382 l 1xe8
40 731 m 1xf0
 575 731 l 1
 575 625 l 5
 298 625 l 5
 298 0 l 1
 40 0 l 1
 40 731 l 1xf0
EndSplineSet
EndChar

StartChar: E
Encoding: 69 69 8
Width: 610
Flags: W
HStem: 0 106<298 595> 316 96<212 529> 625 106<298 595>
VStem: 212 86<316 412>
LayerCount: 2
Fore
SplineSet
212 412 m 5
 529 412 l 5
 529 316 l 5
 212 316 l 5
 212 412 l 5
40 731 m 1
 595 731 l 1
 595 625 l 1
 298 625 l 1
 298 106 l 1
 595 106 l 1
 595 0 l 1
 40 0 l 1
 40 731 l 1
EndSplineSet
EndChar

StartChar: T
Encoding: 84 84 9
Width: 672
Flags: W
HStem: 0 21G<207 465> 625.008 106<15 207 465 657> 625.008 55.9922<207 465>
VStem: 207 258<0 681>
LayerCount: 2
Fore
SplineSet
657 625.0078125 m 5xd0
 15 625.0078125 l 5
 15 731.0078125 l 1
 657 731.0078125 l 1
 657 625.0078125 l 5xd0
207 0 m 1
 207 681 l 1
 465 681 l 1xb0
 465 0 l 1
 207 0 l 1
EndSplineSet
EndChar

StartChar: N
Encoding: 78 78 10
Width: 718
Flags: W
HStem: 0 21G<40 178 525.541 678> 711 20G<40 192.415 540 678>
VStem: 40 138<0 304.187> 540 138<426.271 731>
LayerCount: 2
Fore
SplineSet
40 0 m 1
 40 731 l 1
 168 731 l 1
 540 426.271484375 l 1
 540 731 l 1
 678 731 l 1
 678 0 l 1
 550 0 l 1
 178 304.186523438 l 1
 178 0 l 1
 40 0 l 1
EndSplineSet
EndChar

StartChar: M
Encoding: 77 77 11
Width: 818
Flags: W
HStem: 0 21G<40 178 520 778> 711 20G<40 174.565 582.824 778>
VStem: 40 138<0 350> 520 258<0 351>
LayerCount: 2
Fore
SplineSet
40 0 m 1
 40 731 l 1
 158 731 l 1
 375 469 l 5
 600 731 l 1
 778 731 l 1
 778 0 l 1
 520 0 l 1
 520 351 l 1
 346 165 l 5
 178 350 l 1
 178 0 l 1
 40 0 l 1
EndSplineSet
EndChar

StartChar: P
Encoding: 80 80 12
Width: 710
Flags: W
HStem: 0 21G<40 298> 241.957 102.301<228 394.727> 624.69 106.307<298 389.281>
VStem: 40 258<0 241.957 344.258 624.69> 228 70<241.957 344.258> 445.513 239.487<395.048 575.04>
LayerCount: 2
Fore
SplineSet
298 0 m 1xf4
 40 0 l 1
 40 730.999810432 l 1xf4
 358 730.997070312 l 2
 586.517543439 730.99516514 685 634.916687209 685 483.93359375 c 4
 685 336.058604292 583.582132565 241.95703125 353 241.95703125 c 6
 228 241.95703125 l 5xec
 225 344.2578125 l 5
 322.697265625 344.284179688 l 6
 406.570519799 344.464019958 445.512695312 399.143420057 445.512695312 486.704101562 c 4
 445.512695312 571.45749775 406.569843106 624.285194931 322.697265625 624.583007812 c 2
 298 624.690429688 l 1
 298 0 l 1xf4
EndSplineSet
EndChar

StartChar: D
Encoding: 68 68 13
Width: 760
Flags: W
HStem: 0 102.284<228 401.012> 624.69 106.307<298 394.064>
VStem: 40 258<102.258 624.69> 228 70<0 102.258> 490.513 244.487<216.693 511.751>
LayerCount: 2
Fore
SplineSet
298 0 m 1xd8
 40 0 l 1
 40 730.999810432 l 1xe8
 358 730.997070312 l 2
 621.459063842 730.994201231 735 586.305504144 735 358.93359375 c 4
 735 139.558399529 618.308357349 -0.04296875 353 -0.04296875 c 2
 228 -0.04296875 l 1xd8
 225 102.2578125 l 1
 327.697265625 102.284179688 l 2
 438.8873657 102.611761309 490.512695312 202.211069574 490.512695312 361.704101562 c 4
 490.512695312 523.294301954 438.886468613 624.015199967 327.697265625 624.583007812 c 2
 298 624.690429688 l 1xe8
 298 0 l 1xd8
EndSplineSet
EndChar

StartChar: J
Encoding: 74 74 14
Width: 338
Flags: W
HStem: 711 20G<40 298>
VStem: 40 258<134.349 731>
LayerCount: 2
Fore
SplineSet
40 137 m 2
 40 731 l 1
 298 731 l 1
 298 269 l 2
 298 17.5290794723 117.848634787 -77.894569024 -62 -103.994140625 c 5
 -91 -17 l 1
 -91 -17 40 -4.19287252161 40 137 c 2
EndSplineSet
EndChar

StartChar: U
Encoding: 85 85 15
Width: 733
Flags: W
HStem: -10.0664 146.351<269.453 499.462> 711 20G<40 319.487 555.513 693.513>
VStem: 40 279.487<201.432 731> 555.513 138<196.831 731.008>
LayerCount: 2
Fore
SplineSet
693.512695312 324 m 6
 693.512695312 104.294861011 568.090820312 -10.06640625 371 -10.06640625 c 0
 168.721679688 -10.06640625 40 108.90331443 40 351.93359375 c 2
 40 731 l 2
 319.487304688 731 l 1
 319.487304688 311.704101562 l 2
 319.487304688 203.855079915 354.941645406 136.284179688 434.697265625 136.284179688 c 0
 517.20543424 136.284179688 555.512695312 201.765249242 555.512695312 306.279296875 c 2
 555.512695312 731.0078125 l 1
 693.512695312 731.0078125 l 1
 693.512695312 324 l 6
EndSplineSet
EndChar

StartChar: V
Encoding: 86 86 16
Width: 760
Flags: W
HStem: 0 21G<253.886 515.84> 711 20G<1 285.777 615.07 759>
LayerCount: 2
Fore
SplineSet
261 0 m 1
 1 731 l 1
 279 731 l 1
 448.579101562 230.521484375 l 5
 622 731 l 1
 759 731 l 1
 509 0 l 1
 261 0 l 1
EndSplineSet
EndChar

StartChar: W
Encoding: 87 87 17
Width: 1121
Flags: W
HStem: 0 21G<180.938 449.785 679.242 940.062> 711 20G<1 263.468 505.193 714.651 967.886 1120>
LayerCount: 2
Fore
SplineSet
186 0 m 1
 1 731 l 1
 259 731 l 1
 368.579101562 240.521484375 l 1
 511 731 l 1
 709 731 l 5
 847.579101562 240.521484375 l 5
 973 731 l 5
 1120 731 l 5
 935 0 l 5
 685 0 l 1
 564.780273438 417.592773438 l 1
 444 0 l 1
 186 0 l 1
EndSplineSet
EndChar

StartChar: R
Encoding: 82 82 18
Width: 745
Flags: W
HStem: 0 21G<40 298 489.964 744.964> 281.957 102.301<258 365.177> 624.69 106.307<298 399.331>
VStem: 40 258<0 281.957 384.258 624.69> 258 40<281.957 384.258> 445.513 239.487<428.197 582.204>
LayerCount: 2
Fore
SplineSet
298 0 m 1xf4
 40 0 l 1
 40 730.999810432 l 1xf4
 358 730.997070312 l 2
 586.517543437 730.995101239 685 642.694476499 685 503.93359375 c 0
 685 347.531397832 537.970703125 315.838867188 537.970703125 315.838867188 c 1
 537.970703125 315.838867188 603.400748864 296.353626943 672.012695312 170.56640625 c 4
 701.514401765 112.12023584 744.963867188 0 744.963867188 0 c 1
 489.963867188 0 l 1
 489.963867188 0 473.439279596 50.4086326907 435.419921875 144.82421875 c 4
 391.240785164 254.536726647 358.008768459 281.95703125 306 281.95703125 c 2
 258 281.95703125 l 1xec
 255 384.2578125 l 1
 322.697265625 384.284179688 l 2
 406.570551504 384.31684722 445.512695312 431.439548345 445.512695312 506.704101562 c 0
 445.512695312 579.163609077 406.569363822 624.218202324 322.697265625 624.583007812 c 2
 298 624.690429688 l 1
 298 0 l 1xf4
EndSplineSet
EndChar

StartChar: B
Encoding: 66 66 19
Width: 710
Flags: W
HStem: 0.00195312 106.308<298 402.591> 321.957 102.301<265 395.976> 624.69 106.31<298 389.193>
VStem: 262 36<321.957 424.258> 427.513 237.487<455.906 589.989> 447.513 237.487<145.57 280.086>
LayerCount: 2
Fore
SplineSet
265 424.2578125 m 1xf4
 322.697265625 424.284179688 l 2
 394.277870336 424.403041966 427.512695312 461.809708705 427.512695312 521.704101562 c 0xf8
 427.512695312 584.943192572 394.276837711 624.235110983 322.697265625 624.583007812 c 2
 298 624.690429688 l 1
 298 106.309570312 l 1
 322.697265625 106.416992188 l 2
 407.935102708 106.800244379 447.512695312 146.442112994 447.512695312 210.295898438 c 0
 447.512695312 278.929668413 406.984983976 321.796646398 319.697265625 321.930664062 c 2
 262 321.95703125 l 1
 265 424.2578125 l 1xf4
40 730.999810432 m 1
 338 731 l 2
 566.517543437 730.998247699 665 652.418503475 665 528.93359375 c 4xf8
 665 384.443219612 519.685546875 372.668945312 519.685546875 372.668945312 c 5
 519.685546875 372.668945312 685 356.604192715 685 202.06640625 c 4xf4
 685 78.5826900998 580.494151591 0.00394143969688 338 0.001953125 c 2
 40 0 l 1
 40 730.999810432 l 1
EndSplineSet
EndChar

StartChar: C
Encoding: 67 67 20
Width: 695
Flags: W
HStem: -10.0664 129.351<406.981 553.137> 609.583 129.351<290.462 552.007>
VStem: 25 299.487<224.799 501.298>
LayerCount: 2
Fore
SplineSet
678.366210938 647.19140625 m 1
 625.9375 546.067382812 l 1
 625.9375 546.067382812 575.194646205 609.583007812 487.697265625 609.583007812 c 4
 374.713345767 609.583007812 324.487304688 514.073885449 324.487304688 361.704101562 c 0
 324.487304688 212.662778618 374.713345767 119.284179688 487.697265625 119.284179688 c 0
 580.10503965 119.284179688 635.393554688 183.310546875 635.393554688 183.310546875 c 1
 680.759765625 82.5087890625 l 1
 680.759765625 82.5087890625 593.581722166 -10.06640625 408 -10.06640625 c 0
 173.943878257 -10.06640625 25 134.599609375 25 361.93359375 c 0
 25 592.322265625 173.943878257 738.93359375 408 738.93359375 c 0
 590.385082199 738.93359375 678.366210938 647.19140625 678.366210938 647.19140625 c 1
EndSplineSet
EndChar

StartChar: G
Encoding: 71 71 21
Width: 741
Flags: W
HStem: -10.0664 134.351<404.185 517.259> 0 21G<610 736> 604.583 134.351<290.972 563.797>
VStem: 25 299.487<226.216 499.881> 584 131<12.8604 357>
LayerCount: 2
Fore
SplineSet
584 357 m 5x78
 715 357 l 1
 715 210 l 2
 715 80.5 736 0 736 0 c 1
 610 0 l 1
 610 0 584 66.5 584 210 c 6
 584 357 l 5x78
698.366210938 637.19140625 m 1
 645.9375 536.067382812 l 1
 645.9375 536.067382812 591.52401775 604.583007812 497.697265625 604.583007812 c 0
 377.790733984 604.583007812 324.487304688 511.000413281 324.487304688 361.704101562 c 0
 324.487304688 215.73681069 378.262570871 124.284179688 476 124.284179688 c 0
 586.06338506 124.284179688 639.393554688 243.310546875 639.393554688 243.310546875 c 1
 684.759765625 142.508789062 l 1
 684.759765625 142.508789062 599.320878531 -10.06640625 390 -10.06640625 c 0xb8
 178.139480461 -10.06640625 25 134.599609375 25 361.93359375 c 0
 25 592.322265625 173.943878257 738.93359375 408 738.93359375 c 0
 621.876788989 738.93359375 698.366210938 637.19140625 698.366210938 637.19140625 c 1
EndSplineSet
EndChar

StartChar: r
Encoding: 114 114 22
Width: 458
Flags: W
HStem: 0 21G<40 268> 409.583 111.351<337.485 448> 491.011 20G<40 268>
VStem: 40 228<0 511.011> 195 59.4873<259.934 346.054>
LayerCount: 2
Fore
SplineSet
40 0 m 1xb0
 40 511.010742188 l 1
 268 511.010742188 l 1
 268 0 l 1
 40 0 l 1xb0
448 409.583007812 m 1xc8
 314.038673539 409.583007812 254.487304688 346.054247458 254.487304688 244.704101562 c 1
 195 259.93359375 l 1
 195 419.43344351 293.38851488 520.93359375 448 520.93359375 c 1
 448 409.583007812 l 1xc8
EndSplineSet
EndChar

StartChar: K
Encoding: 75 75 23
Width: 749
Flags: W
HStem: 0 21G<40 298 455.239 748> 711 20G<40 298 525.224 708>
VStem: 40 258<0 731>
LayerCount: 2
Fore
SplineSet
467 0 m 1
 260 352 l 5
 540 731 l 1
 708 731 l 1
 486 418 l 1
 748 0 l 1
 467 0 l 1
40 0 m 1
 40 731 l 1
 298 731 l 1
 298 0 l 1
 40 0 l 1
EndSplineSet
EndChar

StartChar: A
Encoding: 65 65 24
Width: 760
Flags: W
HStem: 0 20G<1 144.93 474.223 759> 156 96<162 459> 710 21G<244.16 506.114>
LayerCount: 2
Fore
SplineSet
162 252 m 5
 459 252 l 5
 459 156 l 5
 162 156 l 5
 162 252 l 5
EndSplineSet
Refer: 16 86 N -1 0 0 -1 760 731 2
EndChar

StartChar: S
Encoding: 83 83 25
Width: 625
Flags: W
HStem: -10 107.462<131.079 335.669> 626.659 112.462<292.42 487.126>
VStem: 25 244.312<441.729 602.155> 357.711 248.182<123.952 286.82>
LayerCount: 2
Back
SplineSet
242.755859375 249.140625 m 0
 82.9760744287 300.733786061 25 382.446899875 25 501.010742188 c 0
 25 649.373046875 137.23046875 739.12109375 321.606445312 739.12109375 c 0
 486.114495658 739.12109375 566.118164062 693.891601562 566.118164062 693.891601562 c 1
 566.118164062 572.891601562 l 1
 566.118164062 572.891601562 477.553838537 626.659179688 375 626.659179688 c 0
 306.357421875 626.659179688 269.311523438 604.26953125 269.311523438 562 c 0
 269.311523438 523.04296875 303.505845869 504.559218542 371.370117188 481.081054688 c 0
 537.435505677 423.629463064 605.892578125 351.640064786 605.892578125 222 c 0
 605.892578125 79.021484375 498.063476562 -10 296.177734375 -10 c 0
 135.829024566 -10 34.189453125 45.2294921875 34.189453125 45.2294921875 c 5
 34.189453125 165.229492188 34.189453125 165.229492188 34.189453125 165.229492188 c 5
 34.189453125 165.229492188 123.895154021 97.4619140625 258 97.4619140625 c 0
 319.445137267 97.4619140625 357.7109375 119.075823735 357.7109375 161 c 0
 357.7109375 205.70115933 327.96615746 221.626076557 242.755859375 249.140625 c 0
EndSplineSet
Fore
SplineSet
242.755859375 249.140625 m 0
 82.9760744287 300.733786061 25 382.446899875 25 501.010742188 c 0
 25 649.373046875 137.23046875 739.12109375 321.606445312 739.12109375 c 0
 492.842518805 739.12109375 576.118164062 683.891601562 576.118164062 683.891601562 c 1
 548.118164062 575.891601562 l 1
 548.118164062 575.891601562 467.895054388 626.659179688 375 626.659179688 c 0
 306.357421875 626.659179688 269.311523438 604.26953125 269.311523438 562 c 0
 269.311523438 523.04296875 303.505845869 504.559218542 371.370117188 481.081054688 c 0
 537.435505677 423.629463064 605.892578125 351.640064786 605.892578125 222 c 0
 605.892578125 79.021484375 498.063476562 -10 296.177734375 -10 c 0
 124.200162878 -10 15.189453125 52.2294921875 15.189453125 52.2294921875 c 1
 45.189453125 162.229492188 45.189453125 162.229492188 45.189453125 162.229492188 c 1
 45.189453125 162.229492188 130.486234407 97.4619140625 258 97.4619140625 c 0
 319.445137267 97.4619140625 357.7109375 119.075823735 357.7109375 161 c 0
 357.7109375 205.70115933 327.96615746 221.626076557 242.755859375 249.140625 c 0
EndSplineSet
EndChar

StartChar: X
Encoding: 88 88 26
Width: 752
Flags: W
HStem: 0 21G<16.1465 187.265 446.612 751.146> 711 20G<1 305.535 563.641 736>
LayerCount: 2
Fore
SplineSet
388.385742188 326.626953125 m 5
 174.146484375 0 l 5
 16.146484375 0 l 5
 289.411132812 412.603515625 l 5
 388.385742188 326.626953125 l 5
448.385742188 326.626953125 m 5
 349.411132812 412.603515625 l 5
 578 731 l 5
 736 731 l 5
 448.385742188 326.626953125 l 5
1 731 m 5
 293 731 l 5
 751.146484375 0 l 5
 459.146484375 0 l 5
 1 731 l 5
EndSplineSet
EndChar

StartChar: Y
Encoding: 89 89 27
Width: 710
Flags: W
HStem: 0 21G<234 492> 220 131<271 449> 711 20G<1 274.299 556.437 709>
VStem: 234 258<0 351>
LayerCount: 2
Fore
SplineSet
234 0 m 1
 234 351 l 5
 492 351 l 5
 492 0 l 1
 234 0 l 1
271 220 m 5
 1 731 l 1
 264 731 l 1
 413.579101562 440.521484375 l 1
 567 731 l 1
 709 731 l 1
 449 220 l 5
 271 220 l 5
EndSplineSet
EndChar

StartChar: Z
Encoding: 90 90 28
Width: 655
Flags: W
HStem: 0 111<311.522 625> 620 111<20 333.478>
LayerCount: 2
Fore
SplineSet
333.477539062 620 m 1
 20 620 l 5
 20 731 l 5
 625 731 l 1
 625 658 l 1
 311.522460938 111 l 1
 625 111 l 1
 625 0 l 1
 20 0 l 1
 20 73 l 1
 333.477539062 620 l 1
EndSplineSet
EndChar

StartChar: a
Encoding: 97 97 30
Width: 594
Flags: W
HStem: -10.0752 97.3506<165.278 329.256> 0 21G<376 589> 235.574 85.3506<165.278 328.137> 414.583 106.351<141.11 307.739>
VStem: 25 194.487<102.167 218.316> 341.272 218.748<63.6065 180 284.934 381.653> 368.513 59.4873<97.239 213.961>
LayerCount: 2
Fore
SplineSet
368.512695312 167.154296875 m 4xba
 368.512695312 189.219303716 345.522412967 235.57421875 287 235.57421875 c 0
 242.575352027 235.57421875 219.487304688 205.36736786 219.487304688 157.154296875 c 0
 219.487304688 114.200122175 242.174104783 87.275390625 283 87.275390625 c 0
 345.355399457 87.275390625 368.512695312 128.053177839 368.512695312 167.154296875 c 4xba
428 160.924804688 m 4
 428 66.4249031209 349.833630471 -10.0751953125 227 -10.0751953125 c 0
 103.555555556 -10.0751953125 25 52.5360084756 25 150.924804688 c 0
 25 254.813991095 103.555555556 320.924804688 227 320.924804688 c 0
 349.833630471 320.924804688 428 238.702862483 428 160.924804688 c 4
589 0 m 1x7c
 376 0 l 1
 376 0 341.272460938 39.2342766138 341.272460938 164.704101562 c 2
 341.272460938 303 l 2
 341.272460938 373.877446387 310.126226808 414.583007812 240.0625 414.583007812 c 0
 159.512429639 414.583007812 95.822265625 374.067382812 95.822265625 374.067382812 c 5
 61.3935546875 462.19140625 l 5
 61.3935546875 462.19140625 136.811887085 520.93359375 291.759765625 520.93359375 c 0
 455.537939586 520.93359375 559.275288629 454.156314624 559.759765625 284.93359375 c 2
 560.020507812 180 l 2
 560.340191296 63.606476538 589 0 589 0 c 1x7c
EndSplineSet
EndChar

StartChar: t
Encoding: 116 116 31
Width: 451
Flags: W
HStem: 0 86.9941<355.482 434> 415.011 96<5 436>
VStem: 82 238<143.475 630.994>
LayerCount: 2
Fore
SplineSet
5 511.010742188 m 1
 436 511.010742188 l 1
 436 415.010742188 l 1
 5 415.010742188 l 1
 5 511.010742188 l 1
320 200.994140625 m 2
 320 129.86265121 345.251662577 86.994140625 434 86.994140625 c 5
 434 0 l 5
 242.729456825 0 82 26.0657250025 82 278.994140625 c 2
 82 630.994140625 l 1
 320 720.994140625 l 1
 320 200.994140625 l 2
EndSplineSet
EndChar

StartChar: e
Encoding: 101 101 32
Width: 587
Flags: W
HStem: -10.0664 109.351<304.797 462.6> 216 81<228 389.889> 418.583 102.351<281.141 362.591>
VStem: 228 22.4873<216 297> 389.889 177.216<297 378.286>
LayerCount: 2
Fore
SplineSet
389.888671875 297 m 1
 388.349512949 362.980633846 374.799644945 418.583007812 319.697265625 418.583007812 c 0
 271.785896521 418.583007812 250.487304688 355.439553024 250.487304688 254.704101562 c 0
 250.487304688 159.15093667 284.403188213 99.2841796875 378 99.2841796875 c 0
 448.099753486 99.2841796875 500.393554688 135.310546875 500.393554688 135.310546875 c 5
 535.759765625 44.5087890625 l 5
 535.759765625 44.5087890625 464.562459511 -10.06640625 313 -10.06640625 c 0
 136.999574251 -10.06640625 25 92.9886855259 25 254.93359375 c 0
 25 417.488996187 129.221826039 520.93359375 317 520.93359375 c 0
 508.403958481 520.93359375 567.104492188 374.445702825 567.104492188 267.418945312 c 0
 567.104492188 234.21706977 563 216 563 216 c 1
 228 216 l 1
 228 297 l 1
 389.888671875 297 l 1
EndSplineSet
EndChar

StartChar: zero
Encoding: 48 48 34
Width: 715
Flags: W
HStem: -10.0664 106.351<319.586 395.796> 632.583 106.351<319.586 395.796>
VStem: 25 249.487<216.608 509.492> 440.513 249.487<216.608 509.492>
LayerCount: 2
Fore
SplineSet
274.487304688 361.704101562 m 0
 274.487304688 198.522231087 300.094240025 96.2841796875 357.697265625 96.2841796875 c 0
 414.253884931 96.2841796875 440.512695312 198.522231087 440.512695312 361.704101562 c 0
 440.512695312 528.211857423 414.253884931 632.583007812 357.697265625 632.583007812 c 0
 300.094240025 632.583007812 274.487304688 528.211857423 274.487304688 361.704101562 c 0
25 361.93359375 m 4
 25 592.322265625 154.499507727 738.93359375 358 738.93359375 c 4
 560.888888889 738.93359375 690 592.322265625 690 361.93359375 c 4
 690 134.599609375 560.888888889 -10.06640625 358 -10.06640625 c 4
 154.499507727 -10.06640625 25 134.599609375 25 361.93359375 c 4
EndSplineSet
EndChar

StartChar: parenright
Encoding: 41 41 35
Width: 363
Flags: W
HStem: -200.066 86.3506<15.3027 88.5615> 694.642 86.3506<15.3027 88.8005>
VStem: 224.513 113.487<83.3936 490.346>
LayerCount: 2
Fore
SplineSet
15 -200.06640625 m 0
 15.302734375 -113.715820312 l 0
 150.757816239 -113.715820312 224.512695312 39.3681640625 224.512695312 283.704101562 c 4
 224.512695312 536.3046875 150.663823144 694.641601562 15 694.641601562 c 1
 15.302734375 780.9921875 l 1
 223 780.9921875 338 587.69140625 338 283.93359375 c 0
 338 -11.8447265625 222.874023438 -200.06640625 15 -200.06640625 c 0
EndSplineSet
EndChar

StartChar: one
Encoding: 49 49 36
Width: 481
Flags: W
HStem: 0 21G<183.6 441.6> 711 20G<205.968 441.6>
VStem: 183.6 258<0 565.05>
LayerCount: 2
Fore
SplineSet
183.599609375 565.049804688 m 1
 51.70703125 480.103515625 l 5
 1 562.64453125 l 1
 233.599609375 731 l 1
 441.599609375 731 l 1
 441.599609375 0 l 1
 183.599609375 0 l 1
 183.599609375 565.049804688 l 1
EndSplineSet
EndChar

StartChar: two
Encoding: 50 50 37
Width: 608
Flags: W
HStem: 623.599 115.394<132.74 304.431>
VStem: 339.676 247.086<465.933 590.896>
LayerCount: 2
Fore
SplineSet
226 623.598632812 m 0
 298.829101562 623.598632812 339.67578125 593 339.67578125 529 c 0
 339.67578125 480.674804688 308.965820312 445.969726562 248.821289062 405.876953125 c 0
 66.8669771224 284.584911222 20 212.663085938 20 34 c 2
 20 0 l 1
 593.548828125 0 l 1
 593.548828125 145 l 1
 227.573242188 145 l 1
 227.573242188 145 233.145074166 203.6163579 344.154296875 251.922851562 c 0
 492.388096608 316.427898374 586.76171875 380.974609375 586.76171875 504.010742188 c 0
 586.76171875 645.295898438 485 738.9921875 291.548828125 738.9921875 c 0
 118.26953125 738.9921875 31.1796875 670.796875 31.1796875 670.796875 c 1
 67.3955078125 570.754882812 l 1
 67.3955078125 570.754882812 134.442382812 623.598632812 226 623.598632812 c 0
EndSplineSet
EndChar

StartChar: three
Encoding: 51 51 38
Width: 622
Flags: W
HStem: -9.99805 117.938<123.586 300.477> 322 101.481<143.688 283.14> 621.599 117.394<136.769 377.32>
VStem: 320.533 257.086<458.76 589.444> 337.376 260.084<142.228 280.004>
LayerCount: 2
Fore
SplineSet
197.6875 423.481445312 m 2xe8
 281.3984375 423.481445312 320.533203125 458.360351562 320.533203125 524.05859375 c 0
 320.533203125 591.552734375 279.033203125 621.598632812 210.548828125 621.598632812 c 4
 126.991210938 621.598632812 67.3955078125 570.754882812 67.3955078125 570.754882812 c 5
 31.1796875 670.796875 l 5
 31.1796875 670.796875 125.60546875 738.9921875 291.548828125 738.9921875 c 4
 463.090820312 738.9921875 577.619140625 670.857421875 577.619140625 535.868164062 c 0xf0
 577.619140625 415 448.711914062 375.697265625 448.711914062 375.697265625 c 1
 448.711914062 375.697265625 597.459960938 348 597.459960938 198 c 0
 597.459960938 58.681640625 466.567382812 -9.998046875 289.548828125 -9.998046875 c 0
 122.483398438 -9.998046875 15 53.9091796875 15 53.9091796875 c 1
 54.3232421875 163.262695312 l 1
 54.3232421875 163.262695312 120.541992188 107.939453125 217.548828125 107.939453125 c 0
 296.38671875 107.939453125 337.375976562 140.040039062 337.375976562 209 c 0
 337.375976562 275.270507812 304.148845547 321.220725771 197.6875 321.737304688 c 2
 143.548828125 322 l 1
 143.6875 423.481445312 l 1
 197.6875 423.481445312 l 2xe8
EndSplineSet
EndChar

StartChar: at
Encoding: 64 64 39
Width: 925
Flags: W
HStem: -149.727 87.877<346.051 669.482> 66.5439 93.0811<358.767 503.922> 67.4209 109.558<645.757 782.487> 406.264 85.0811<358.767 503.322> 624.433 93.2939<333.929 609.24>
VStem: 25 103<148.872 413.178> 218.768 179.59<183.513 380.476> 508.367 182.4<205.139 483.413> 527.178 73.5898<173.076 378.686> 804.404 95.8828<200.566 433.367>
LayerCount: 2
Fore
SplineSet
527.177734375 287.528320312 m 0xdec0
 527.177734375 360.52734375 507.922851562 406.263671875 464.609375 406.263671875 c 0
 419.364257812 406.263671875 398.357421875 357.446289062 398.357421875 279.528320312 c 0
 398.357421875 205.82421875 419.364257812 159.625 464.609375 159.625 c 0
 507.922851562 159.625 527.177734375 208.907226562 527.177734375 287.528320312 c 0xdec0
600.767578125 248.344726562 m 0
 600.767578125 137.244340122 530.612100409 66.5439453125 420.3671875 66.5439453125 c 0
 297.166992188 66.5439453125 218.767578125 147.744140625 218.767578125 275.344726562 c 0
 218.767578125 407.344726562 297.166992188 491.344726562 420.3671875 491.344726562 c 0
 530.612100409 491.344726562 600.767578125 396.844980093 600.767578125 248.344726562 c 0
690.767578125 256.604492188 m 2xbf40
 690.767578125 205.138671875 708.181732451 176.978515625 742.811523438 176.978515625 c 0
 783.503467408 176.978515625 804.404296875 222.505859375 804.404296875 293.712890625 c 0
 804.404296875 535.008980657 664.463867188 624.432617188 464.420898438 624.432617188 c 4
 250.372070312 624.432617188 128 483.538639234 128 281.93359375 c 0
 128 69.4798329156 254.461914062 -61.849609375 488.713867188 -61.849609375 c 0
 686.701215781 -61.849609375 808 12 808 12 c 1
 808 -79 808 -79 808 -79 c 1
 808 -79 712.851820511 -149.7265625 487.713867188 -149.7265625 c 0
 201.205078125 -149.7265625 25 14.120869497 25 278.08984375 c 0
 25 534.04161915 184.602539062 717.7265625 463.420898438 717.7265625 c 4
 718.471679688 717.7265625 900.287109375 571.021532587 900.287109375 293.712890625 c 0
 900.287109375 136.370117188 813.41796875 67.4208984375 697 67.4208984375 c 0
 594.513671875 67.4208984375 508.3671875 108.552733414 508.3671875 280 c 2
 508.3671875 483.413085938 l 1
 690.767578125 483.413085938 l 1
 690.767578125 256.604492188 l 2xbf40
EndSplineSet
EndChar

StartChar: four
Encoding: 52 52 40
Width: 709
Flags: W
HStem: 0 21G<321.6 579.6> 186.645 96<137.369 694> 711 20G<355.693 579.6>
VStem: 321.6 258<0 515.05>
LayerCount: 2
Fore
SplineSet
15 282.64453125 m 1
 371.599609375 731 l 1
 579.599609375 731 l 1
 579.599609375 0 l 1
 321.599609375 0 l 1
 321.599609375 515.049804688 l 1
 137.369140625 282.64453125 l 1
 694 282.64453125 l 5
 694 186.64453125 l 5
 25 186.64453125 l 1
 15 282.64453125 l 1
EndSplineSet
EndChar

StartChar: five
Encoding: 53 53 41
Width: 622
Flags: W
HStem: -9.99805 119.938<135.168 292.273> 346.737 384.271<136 293.036> 620 111.008<320 566>
VStem: 337.376 260.084<152.527 300.555>
LayerCount: 2
Fore
SplineSet
136 731.0078125 m 1xd0
 566 731 l 1
 566 620 l 1
 320 620 l 5xb0
 295 460 l 5
 295 460 323.896 474 381 474 c 0
 500.666613698 474 597.459960938 394.243243243 597.459960938 247 c 0
 597.459960938 73.477038588 463.16659436 -9.998046875 281.548828125 -9.998046875 c 0
 110.171278267 -9.998046875 8.1201171875 72 8.1201171875 72 c 1
 47.751953125 175 l 1
 47.751953125 175 114.967930925 109.939453125 210.548828125 109.939453125 c 0
 293.992229618 109.939453125 337.375976562 151.954706581 337.375976562 228 c 0
 337.375976562 295.405886225 301.718824524 346.737304688 210 346.737304688 c 0
 132.792348435 346.737304688 69.76171875 323 69.76171875 323 c 1
 136 731.0078125 l 1xd0
EndSplineSet
EndChar

StartChar: six
Encoding: 54 54 42
Width: 665
Flags: W
HStem: -10.0664 106.351<293.365 381.296> 385.583 103.351<293.64 470.861> 627.992 111<390.038 517>
VStem: 25 239.487<166.797 346.778> 410.513 229.487<137.296 351.341>
LayerCount: 2
Fore
SplineSet
264.487304688 238.704101562 m 0
 264.487304688 151.143420057 287.016851808 96.2841796875 337.697265625 96.2841796875 c 0
 387.424647973 96.2841796875 410.512695312 151.143420057 410.512695312 238.704101562 c 0
 410.512695312 328.989747652 387.424647973 385.583007812 337.697265625 385.583007812 c 0
 287.016851808 385.583007812 264.487304688 328.989747652 264.487304688 238.704101562 c 0
247.4375 440.29296875 m 5
 247.4375 440.29296875 287.733388442 488.93359375 398 488.93359375 c 0
 543.722151107 488.93359375 640 392.877896013 640 241.93359375 c 0
 640 87.9331527218 522.555555556 -10.06640625 338 -10.06640625 c 0
 146.721759515 -10.06640625 25 91.8220241095 25 297 c 0
 25 616.999833644 233.279855707 738.9921875 517 738.9921875 c 1
 517 627.9921875 l 1
 346.628968251 627.9921875 271.82728933 557.011637786 247.4375 440.29296875 c 5
EndSplineSet
EndChar

StartChar: quotesingle
Encoding: 39 39 43
Width: 189
Flags: W
HStem: 476 255<37 152>
VStem: 37 115<476 525.583>
LayerCount: 2
Fore
SplineSet
37 476 m 1
 1 731 l 1
 188 731 l 1
 152 476 l 5
 37 476 l 1
EndSplineSet
EndChar

StartChar: s
Encoding: 115 115 44
Width: 507
Flags: W
HStem: -9.99805 95.9697<99.2697 284.093> 421.329 99.9697<226.145 400.512>
VStem: 22.8486 195.449<298.152 410.559> 289.018 198.545<95.9532 208.7>
LayerCount: 2
Fore
SplineSet
197.052734375 169.314453125 m 0
 68.2275390625 203.82421875 22.8486328125 258.494140625 22.8486328125 337.810546875 c 0
 22.8486328125 452.138671875 112.6328125 521.298828125 260.133789062 521.298828125 c 0
 397.123046875 521.298828125 463.743164062 477.115234375 463.743164062 477.115234375 c 1
 441.342773438 380.71484375 l 1
 441.342773438 380.71484375 375.310546875 421.329101562 298.848632812 421.329101562 c 0
 246.532226562 421.329101562 218.297851562 404.284179688 218.297851562 382 c 0
 218.297851562 353.677734375 244.57421875 348.706054688 299.944335938 334.8671875 c 0
 434.763671875 301.170898438 487.5625 250.798828125 487.5625 166.6015625 c 0
 487.5625 57.765625 401.299804688 -9.998046875 239.791015625 -9.998046875 c 0
 102.208984375 -9.998046875 15 39.78515625 15 39.78515625 c 1
 39 137.78515625 39 137.78515625 39 137.78515625 c 1
 39 137.78515625 108.840820312 85.9716796875 213.248046875 85.9716796875 c 0
 259.939453125 85.9716796875 289.017578125 99.1025390625 289.017578125 121 c 0
 289.017578125 146.979492188 264.935546875 151.129882812 197.052734375 169.314453125 c 0
EndSplineSet
EndChar

StartChar: seven
Encoding: 55 55 45
Width: 625
Flags: W
HStem: 0 21G<78.999 330.756> 620 111<20 363.478>
LayerCount: 2
Fore
SplineSet
363.477539062 620 m 5
 20 620 l 1
 20 731 l 1
 595 731 l 5
 595 658 l 5
 322.47265625 0 l 1
 78.9990234375 0 l 1
 363.477539062 620 l 5
EndSplineSet
EndChar

StartChar: eight
Encoding: 56 56 46
Width: 655
Flags: W
HStem: -10.0664 96.3506<283.358 371.996> 332.583 103.76<283.939 370.595> 349.992 68.9414<158.722 496.667> 642.642 96.3506<286.645 368.724>
VStem: 25 229.487<116.601 295.345> 51 213.487<461.18 623.25> 390.513 213.487<461.18 623.25> 400.513 229.487<116.601 295.345>
LayerCount: 2
Fore
SplineSet
264.487304688 541.762695312 m 0xd6
 264.487304688 476.949851139 283.93946359 436.342773438 327.697265625 436.342773438 c 0
 370.595411016 436.342773438 390.512695312 476.949851139 390.512695312 541.762695312 c 4
 390.512695312 603.772397455 370.595411016 642.641601562 327.697265625 642.641601562 c 0
 283.93946359 642.641601562 264.487304688 603.772397455 264.487304688 541.762695312 c 0xd6
51 546.9921875 m 0
 51 664.325410312 158.721812734 738.9921875 328 738.9921875 c 0
 496.666666667 738.9921875 604 664.325410312 604 546.9921875 c 4
 604 426.602953839 496.666666667 349.9921875 328 349.9921875 c 0xb6
 158.721812734 349.9921875 51 426.602953839 51 546.9921875 c 0
254.487304688 211.704101562 m 0xd9
 254.487304688 134.595129102 277.016851808 86.2841796875 327.697265625 86.2841796875 c 0
 377.424647973 86.2841796875 400.512695312 134.595129102 400.512695312 211.704101562 c 0
 400.512695312 286.007692378 377.424647973 332.583007812 327.697265625 332.583007812 c 0
 277.016851808 332.583007812 254.487304688 286.007692378 254.487304688 211.704101562 c 0xd9
25 206.93359375 m 0
 25 336.489027271 142.83288541 418.93359375 328 418.93359375 c 0xb9
 512.555555556 418.93359375 630 336.489027271 630 206.93359375 c 0
 630 74.3221028646 512.555555556 -10.06640625 328 -10.06640625 c 0
 142.83288541 -10.06640625 25 74.3221028646 25 206.93359375 c 0
EndSplineSet
EndChar

StartChar: nine
Encoding: 57 57 47
Width: 665
Flags: W
HStem: -10.0664 111<148 274.962> 239.992 103.351<194.139 371.36> 632.642 106.351<283.704 371.635>
VStem: 25 229.487<377.585 591.629> 400.513 239.487<382.147 562.128>
LayerCount: 2
Fore
SplineSet
400.512695312 490.221679688 m 0
 400.512695312 577.782226562 377.983398438 632.641601562 327.302734375 632.641601562 c 0
 277.575195312 632.641601562 254.487304688 577.782226562 254.487304688 490.221679688 c 0
 254.487304688 399.935546875 277.575195312 343.342773438 327.302734375 343.342773438 c 0
 377.983398438 343.342773438 400.512695312 399.935546875 400.512695312 490.221679688 c 0
417.5625 288.6328125 m 5
 417.5625 288.6328125 377.266225611 239.9921875 267 239.9921875 c 0
 121.278320312 239.9921875 25 336.047851562 25 486.9921875 c 0
 25 640.9921875 142.444335938 738.9921875 327 738.9921875 c 0
 518.278320312 738.9921875 640 637.103515625 640 431.92578125 c 0
 640 111.92578125 431.719726562 -10.06640625 148 -10.06640625 c 1
 148 100.93359375 l 1
 318.371123442 100.93359375 393.172381948 171.9140625 417.5625 288.6328125 c 5
EndSplineSet
EndChar

StartChar: i
Encoding: 105 105 48
Width: 308
Flags: W
HStem: 0 21G<40 268> 576.002 195<69.953 238.386>
VStem: 26.5 255<613.576 731.451> 40 228<0 511.011>
LayerCount: 2
Fore
SplineSet
40 0 m 1xd0
 40 511.010742188 l 1
 268 511.010742188 l 1
 268 0 l 1
 40 0 l 1xd0
26.5 671.001953125 m 4xe0
 26.5 732.113006673 76.2774024024 771.001953125 154.5 771.001953125 c 0
 232.111028097 771.001953125 281.5 732.113006673 281.5 671.001953125 c 4
 281.5 612.946231309 232.111028097 576.001953125 154.5 576.001953125 c 0
 76.2774024024 576.001953125 26.5 612.946231309 26.5 671.001953125 c 4xe0
EndSplineSet
EndChar

StartChar: grave
Encoding: 96 96 49
Width: 240
Flags: W
HStem: 546.008 185<135 157>
VStem: -10 249
LayerCount: 2
Fore
SplineSet
157 731.0078125 m 1
 239 546.0078125 l 1
 135 546.0078125 l 5
 -10 731.0078125 l 1
 157 731.0078125 l 1
EndSplineSet
EndChar

StartChar: o
Encoding: 111 111 50
Width: 621
Flags: W
HStem: -10.0664 96.3506<276.488 344.908> 424.583 96.3506<277.144 344.257>
VStem: 25 222.487<144.204 366.12> 373.513 222.487<144.204 366.12>
LayerCount: 2
Fore
SplineSet
247.487304688 254.704101562 m 4
 247.487304688 151.158453283 266.93946359 86.2841796875 310.697265625 86.2841796875 c 4
 353.595411016 86.2841796875 373.512695312 151.158453283 373.512695312 254.704101562 c 4
 373.512695312 359.127719626 353.595411016 424.583007812 310.697265625 424.583007812 c 4
 266.93946359 424.583007812 247.487304688 359.127719626 247.487304688 254.704101562 c 4
25 254.93359375 m 0
 25 417.488996187 136.221799429 520.93359375 311 520.93359375 c 4
 485.166666667 520.93359375 596 417.488996187 596 254.93359375 c 4
 596 92.9886855259 485.166666667 -10.06640625 311 -10.06640625 c 4
 136.221799429 -10.06640625 25 92.9886855259 25 254.93359375 c 0
EndSplineSet
EndChar

StartChar: b
Encoding: 98 98 51
Width: 655
Flags: W
HStem: -10.0664 106.351<283.615 455> 0 21G<40 268> 404.583 116.351<284.488 455> 741.011 20G<40 268>
VStem: 40 228<0 761.011> 165 79.4873<122.249 379.263> 405.513 224.487<140.481 364.278>
LayerCount: 2
Fore
SplineSet
40 0 m 1x7a
 40 761.010742188 l 1
 268 761.010742188 l 1
 268 0 l 1
 40 0 l 1x7a
244.487304688 244.704101562 m 0xb6
 244.487304688 153.454581571 268.555545917 96.2841796875 322.697265625 96.2841796875 c 4
 379.253884931 96.2841796875 405.512695312 157.306517427 405.512695312 254.704101562 c 4
 405.512695312 346.833830953 379.253884931 404.583007812 322.697265625 404.583007812 c 4
 268.555545917 404.583007812 244.487304688 342.98077529 244.487304688 244.704101562 c 0xb6
165 249.93359375 m 0
 165 415.544548864 247.833018456 520.93359375 378 520.93359375 c 0
 532 520.93359375 630 419.43344351 630 259.93359375 c 0
 630 94.9331212198 532 -10.06640625 378 -10.06640625 c 0
 247.833018456 -10.06640625 165 91.044249832 165 249.93359375 c 0
EndSplineSet
EndChar

StartChar: l
Encoding: 108 108 52
Width: 308
Flags: W
HStem: 0 21G<40 268> 576.002 195<69.953 238.386>
VStem: 26.5 255<613.576 731.451> 40 228<0 511.011>
LayerCount: 2
Fore
SplineSet
40 0 m 5xd0
 40 761.010742188 l 5
 268 761.010742188 l 5
 268 0 l 5
 40 0 l 5xd0
EndSplineSet
EndChar

StartChar: d
Encoding: 100 100 53
Width: 655
Flags: W
HStem: -10.0752 116.351<200 370.512> -0.00878906 21G<387 615> 414.574 106.351<200 371.385> 741.002 20G<387 615>
VStem: 25 224.487<146.581 370.377> 387 228<-0.00878906 761.002> 410.513 79.4873<131.596 388.609>
LayerCount: 2
Fore
SplineSet
615 -0.0087890625 m 1x7c
 387 -0.0087890625 l 1
 387 761.001953125 l 1
 615 761.001953125 l 1
 615 -0.0087890625 l 1x7c
410.512695312 266.154296875 m 4xba
 410.512695312 357.403816867 386.444454083 414.57421875 332.302734375 414.57421875 c 4
 275.746115069 414.57421875 249.487304688 353.551881011 249.487304688 256.154296875 c 4
 249.487304688 164.024567484 275.746115069 106.275390625 332.302734375 106.275390625 c 4
 386.444454083 106.275390625 410.512695312 167.877623148 410.512695312 266.154296875 c 4xba
490 260.924804688 m 4
 490 95.3138495731 407.166981544 -10.0751953125 277 -10.0751953125 c 4
 123 -10.0751953125 25 91.4249549279 25 250.924804688 c 4
 25 415.925277218 123 520.924804688 277 520.924804688 c 4
 407.166981544 520.924804688 490 419.814148606 490 260.924804688 c 4
EndSplineSet
EndChar

StartChar: p
Encoding: 112 112 54
Width: 655
Flags: W
HStem: -179.994 21G<40 268> -10.0664 106.351<283.615 455> 404.583 116.351<284.488 455>
VStem: 40 228<244.704 511.011> 165 79.4873<122.249 379.263> 405.513 224.487<140.481 364.278>
LayerCount: 2
Fore
SplineSet
40 -179.994140625 m 1xf4
 40 511.010742188 l 1
 268 511.010742188 l 1
 268 -179.994140625 l 1
 40 -179.994140625 l 1xf4
244.487304688 244.704101562 m 0xec
 244.487304688 153.454581571 268.555545917 96.2841796875 322.697265625 96.2841796875 c 4
 379.253884931 96.2841796875 405.512695312 157.306517427 405.512695312 254.704101562 c 4
 405.512695312 346.833830953 379.253884931 404.583007812 322.697265625 404.583007812 c 4
 268.555545917 404.583007812 244.487304688 342.98077529 244.487304688 244.704101562 c 0xec
165 249.93359375 m 0
 165 415.544548864 247.833018456 520.93359375 378 520.93359375 c 0
 532 520.93359375 630 419.43344351 630 259.93359375 c 0
 630 94.9331212198 532 -10.06640625 378 -10.06640625 c 0
 247.833018456 -10.06640625 165 91.044249832 165 249.93359375 c 0
EndSplineSet
EndChar

StartChar: q
Encoding: 113 113 55
Width: 655
Flags: W
HStem: -179.994 21G<387 615> -10.0752 116.351<200 370.512> 414.574 106.351<200 371.385>
VStem: 25 224.487<146.581 370.377> 387 228<260.925 511.011> 410.513 79.4873<131.596 388.609>
LayerCount: 2
Fore
SplineSet
615 -179.994140625 m 1xf8
 387 -179.994140625 l 1
 387 511.010742188 l 1
 615 511.010742188 l 1
 615 -179.994140625 l 1xf8
410.512695312 266.154296875 m 0xf4
 410.512695312 357.403816867 386.444454083 414.57421875 332.302734375 414.57421875 c 4
 275.746115069 414.57421875 249.487304688 353.551881011 249.487304688 256.154296875 c 4
 249.487304688 164.024567484 275.746115069 106.275390625 332.302734375 106.275390625 c 4
 386.444454083 106.275390625 410.512695312 167.877623148 410.512695312 266.154296875 c 0xf4
490 260.924804688 m 0
 490 95.3138495731 407.166981544 -10.0751953125 277 -10.0751953125 c 0
 123 -10.0751953125 25 91.4249549279 25 250.924804688 c 0
 25 415.925277218 123 520.924804688 277 520.924804688 c 0
 407.166981544 520.924804688 490 419.814148606 490 260.924804688 c 0
EndSplineSet
EndChar

StartChar: c
Encoding: 99 99 56
Width: 530
Flags: W
HStem: -10.0664 109.351<304.505 425.691> 411.583 109.351<211.111 424.5>
VStem: 25 237.487<145.777 364.573>
LayerCount: 2
Fore
SplineSet
513.366210938 444.19140625 m 5
 461.9375 356.067382812 l 5
 461.9375 356.067382812 425.51009718 411.583007812 362.697265625 411.583007812 c 4
 293.325799995 411.583007812 262.487304688 351.136691989 262.487304688 254.704101562 c 4
 262.487304688 159.15093667 293.325799995 99.2841796875 362.697265625 99.2841796875 c 0
 430.078608827 99.2841796875 470.393554688 153.310546875 470.393554688 153.310546875 c 1
 515.759765625 62.5087890625 l 1
 515.759765625 62.5087890625 444.562459511 -10.06640625 293 -10.06640625 c 0
 129.221826039 -10.06640625 25 92.9886855259 25 254.93359375 c 4
 25 417.488996187 129.221826039 520.93359375 293 520.93359375 c 4
 451.221723784 520.93359375 513.366210938 444.19140625 513.366210938 444.19140625 c 5
EndSplineSet
EndChar

StartChar: f
Encoding: 102 102 57
Width: 451
Flags: W
HStem: 0 21G<82 320> 415.011 96<5 436> 674 86.9941<353.904 444>
VStem: 82 238<0 595.81>
LayerCount: 2
Fore
SplineSet
5 511.010742188 m 1
 436 511.010742188 l 1
 436 415.010742188 l 1
 5 415.010742188 l 1
 5 511.010742188 l 1
320 570 m 2
 320 0 l 1
 82 0 l 1
 82 462 l 2
 82 689.849033991 217.295634575 760.994140625 444 760.994140625 c 5
 444 674 l 5
 347.466720698 674 320 634.891885081 320 570 c 2
EndSplineSet
EndChar

StartChar: hyphen
Encoding: 45 45 58
Width: 347
Flags: W
HStem: 216 96<15 332>
VStem: 15 317<216 312>
LayerCount: 2
Fore
SplineSet
15 312 m 5
 332 312 l 5
 332 216 l 5
 15 216 l 5
 15 312 l 5
EndSplineSet
EndChar

StartChar: equal
Encoding: 61 61 59
Width: 450
Flags: W
HStem: 220 102<15 435> 406 102<15 435>
LayerCount: 2
Fore
SplineSet
15 322 m 1
 435 322 l 1
 435 220 l 5
 15 220 l 5
 15 322 l 1
15 508 m 1
 435 508 l 1
 435 406 l 1
 15 406 l 1
 15 508 l 1
EndSplineSet
EndChar

StartChar: j
Encoding: 106 106 60
Width: 308
Flags: W
HStem: -179.983 86.9941<-74 -5.94922> 491.011 20G<40 268> 576.002 195<69.953 238.386>
VStem: 26.5 255<613.576 731.451> 40 228<-20.3581 511.011>
LayerCount: 2
Fore
SplineSet
40 21.0107421875 m 2xe8
 40 511.010742188 l 1
 268 511.010742188 l 1
 268 99.0107421875 l 2
 268 -113.597255072 111.836720926 -179.983398438 -74 -179.983398438 c 5
 -74 -92.9892578125 l 5
 -5.25166257748 -92.9892578125 40 -50.1207472278 40 21.0107421875 c 2xe8
26.5 671.001953125 m 0xf0
 26.5 732.113006673 76.2774024024 771.001953125 154.5 771.001953125 c 0
 232.111028097 771.001953125 281.5 732.113006673 281.5 671.001953125 c 0
 281.5 612.946231309 232.111028097 576.001953125 154.5 576.001953125 c 0
 76.2774024024 576.001953125 26.5 612.946231309 26.5 671.001953125 c 0xf0
EndSplineSet
EndChar

StartChar: n
Encoding: 110 110 61
Width: 645
Flags: W
HStem: 0 21G<40 268 385.513 620> 409.583 111.351<300.044 475.833> 491.011 20G<40 268>
VStem: 40 228<0 511.011> 175 69.4873<259.934 346.054> 385.513 234.487<0 393.187>
LayerCount: 2
Fore
SplineSet
40 0 m 1xb4
 40 511.010742188 l 1
 268 511.010742188 l 1
 268 0 l 1
 40 0 l 1xb4
244.487304688 244.704101562 m 1xcc
 175 259.93359375 l 1
 175 419.43344351 261.721892562 520.93359375 398 520.93359375 c 0
 553.666666667 520.93359375 620 434.600132626 620 264 c 2
 620 0 l 1
 385.512695312 0 l 5
 385.512695312 283.704101562 l 6
 385.512695312 361.081164546 378.595411016 409.583007812 322.697265625 409.583007812 c 4
 268.555545917 409.583007812 244.487304688 346.054247458 244.487304688 244.704101562 c 1xcc
EndSplineSet
EndChar

StartChar: u
Encoding: 117 117 62
Width: 645
Flags: W
HStem: -10 111.351<184.167 359.956> -0.0771484 21G<392 620> 490.934 20G<40 274.487 392 620>
VStem: 40 234.487<117.747 510.934> 392 228<251 510.934> 415.513 69.4873<164.879 251>
LayerCount: 2
Fore
SplineSet
620 510.93359375 m 1x78
 620 -0.0771484375 l 1
 392 -0.0771484375 l 1
 392 510.93359375 l 1
 620 510.93359375 l 1x78
415.512695312 266.229492188 m 1xb4
 485 251 l 1
 485 91.5 398.278320312 -10 262 -10 c 0
 106.333007812 -10 40 76.3330078125 40 246.93359375 c 2
 40 510.93359375 l 1
 274.487304688 510.93359375 l 5
 274.487304688 227.229492188 l 6
 274.487304688 149.852539062 281.404296875 101.350585938 337.302734375 101.350585938 c 4
 391.444230799 101.350585938 415.512695312 164.87890625 415.512695312 266.229492188 c 1xb4
EndSplineSet
EndChar

StartChar: m
Encoding: 109 109 63
Width: 977
Flags: W
HStem: 0 21G<40 268 375.513 610 717.513 952> 409.583 111.351<296.918 469.08 638.877 811.08> 491.011 20G<40 268>
VStem: 40 228<0 511.011> 175 69.4873<259.934 346.054> 375.513 234.487<0 361.081> 517 69.4873<259.934 346.054> 717.513 234.487<0 393.606>
LayerCount: 2
Fore
SplineSet
586.487304688 244.704101562 m 1xc3
 517 259.93359375 l 1
 517 419.43344351 601.777455509 520.93359375 735 520.93359375 c 0
 887.160660661 520.93359375 952 434.600132626 952 264 c 2
 952 0 l 1
 717.512695312 0 l 1
 717.512695312 283.704101562 l 2
 717.512695312 361.081164546 711.146014931 409.583007812 659.697265625 409.583007812 c 0
 609.016851808 409.583007812 586.487304688 346.054247458 586.487304688 244.704101562 c 1xc3
40 0 m 1xb1
 40 511.010742188 l 1
 268 511.010742188 l 1
 268 0 l 1
 40 0 l 1xb1
244.487304688 244.704101562 m 1xcd
 175 259.93359375 l 1
 175 419.43344351 259.777455509 520.93359375 393 520.93359375 c 0
 545.160660661 520.93359375 610 434.600132626 610 264 c 2
 610 0 l 1
 375.512695312 0 l 5
 375.512695312 283.704101562 l 6
 375.512695312 361.081164546 369.476377279 409.583007812 320.697265625 409.583007812 c 4
 267.940068273 409.583007812 244.487304688 346.054247458 244.487304688 244.704101562 c 1xcd
EndSplineSet
EndChar

StartChar: v
Encoding: 118 118 64
Width: 610
Flags: W
HStem: 0 21G<193.172 426.436> 491.011 20G<1 256.626 474.118 609>
LayerCount: 2
Fore
SplineSet
201 0 m 1
 1 511.010742188 l 1
 249 511.010742188 l 1
 363.579101562 210.521484375 l 5
 482 511.010742188 l 1
 609 511.010742188 l 1
 419 0 l 1
 201 0 l 1
EndSplineSet
EndChar

StartChar: w
Encoding: 119 119 65
Width: 941
Flags: W
HStem: 0 21G<169.151 400.509 558.534 791.066> 491.011 20G<1 235.214 424.608 605.776 797.045 940>
LayerCount: 2
Fore
SplineSet
176 0 m 1
 1 511.010742188 l 1
 229 511.010742188 l 1
 328.579101562 190.521484375 l 1
 431 511.010742188 l 1
 599 511.010742188 l 1
 707.579101562 190.521484375 l 1
 803 511.010742188 l 1
 940 511.010742188 l 1
 785 0 l 1
 565 0 l 1
 479.780273438 263.592773438 l 5
 394 0 l 1
 176 0 l 1
EndSplineSet
EndChar

StartChar: x
Encoding: 120 120 66
Width: 592
Flags: W
HStem: 0 21G<16.1465 177.14 325.912 591.146> 491 20G<1 266.235 414.393 576>
LayerCount: 2
Fore
SplineSet
298.385742188 206.626953125 m 1
 164.146484375 0 l 1
 16.146484375 0 l 1
 209.411132812 292.603515625 l 1
 298.385742188 206.626953125 l 1
368.385742188 206.626953125 m 1
 279.411132812 292.603515625 l 1
 428 511 l 1
 576 511 l 1
 368.385742188 206.626953125 l 1
1 511 m 1
 253 511 l 5
 591.146484375 0 l 1
 339.146484375 0 l 1
 1 511 l 1
EndSplineSet
EndChar

StartChar: k
Encoding: 107 107 67
Width: 659
Flags: W
HStem: 0 21G<40 278 384.025 658> 491 20G<452.9 628> 741 20G<40 278>
VStem: 40 238<0 761>
LayerCount: 2
Fore
SplineSet
397 0 m 1
 240 242 l 1
 470 511 l 1
 628 511 l 1
 453 311 l 1
 658 0 l 1
 397 0 l 1
40 0 m 1
 40 761 l 1
 278 761 l 1
 278 0 l 1
 40 0 l 1
EndSplineSet
EndChar

StartChar: period
Encoding: 46 46 68
Width: 261
Flags: W
HStem: -10.0664 211<62.9192 198.438>
VStem: 25 211<27.4951 163.014>
LayerCount: 2
Fore
SplineSet
25 94.93359375 m 0
 25 159.711310511 66.2220655228 200.93359375 131 200.93359375 c 4
 195.166666667 200.93359375 236 159.711310511 236 94.93359375 c 0
 236 30.7667433216 195.166666667 -10.06640625 131 -10.06640625 c 0
 66.2220655228 -10.06640625 25 30.7667433216 25 94.93359375 c 0
EndSplineSet
EndChar

StartChar: h
Encoding: 104 104 69
Width: 645
Flags: W
HStem: 0 21G<40 268 392.513 620> 409.583 111.351<300.259 475.833> 741.011 20G<40 268>
VStem: 40 228<0 761.011> 175 69.4873<259.934 346.054> 392.513 227.487<0 393.187>
LayerCount: 2
Fore
SplineSet
40 0 m 1xf4
 40 761.010742188 l 5
 268 761.010742188 l 5
 268 0 l 1
 40 0 l 1xf4
244.487304688 244.704101562 m 1xec
 175 259.93359375 l 1
 175 419.43344351 261.721892562 520.93359375 398 520.93359375 c 0
 553.666666667 520.93359375 620 434.600132626 620 264 c 2
 620 0 l 1
 392.512695312 0 l 1
 392.512695312 283.704101562 l 2
 392.512695312 361.081164546 385.595411016 409.583007812 329.697265625 409.583007812 c 0
 270.709717669 409.583007812 244.487304688 346.054247458 244.487304688 244.704101562 c 1xec
EndSplineSet
EndChar

StartChar: g
Encoding: 103 103 70
Width: 655
Flags: W
HStem: -190.224 109.351<131.324 344.414> 19.9248 116.351<193.056 366.154> 414.574 106.351<200 374.62>
VStem: 25 224.487<168.044 377.77> 387 228<-34.1707 511.011> 410.513 79.4873<155.789 394.415>
LayerCount: 2
Fore
SplineSet
410.512695312 281.154296875 m 4xf4
 410.512695312 363.181720651 386.444454083 414.57421875 332.302734375 414.57421875 c 0
 275.746115069 414.57421875 249.487304688 359.329784795 249.487304688 271.154296875 c 4
 249.487304688 188.244983989 272.575352027 136.275390625 322.302734375 136.275390625 c 4
 383.367065866 136.275390625 410.512695312 192.098039652 410.512695312 281.154296875 c 4xf4
490 275.924804688 m 4
 490 119.480507605 403.278107438 19.9248046875 267 19.9248046875 c 4
 119.111111111 19.9248046875 25 115.59161296 25 265.924804688 c 4
 25 421.758584299 123 520.924804688 277 520.924804688 c 0
 407.166981544 520.924804688 490 425.647455687 490 275.924804688 c 4
615 76.005859375 m 2xf8
 615 -86.5498046875 520.265625 -190.223632812 316.487304688 -190.223632812 c 0
 154.257958485 -190.223632812 68.12109375 -147.481445312 68.12109375 -147.481445312 c 1
 87.5498046875 -41.357421875 l 1
 87.5498046875 -41.357421875 143.977539062 -80.873046875 246.790039062 -80.873046875 c 0
 356.161132812 -80.873046875 387 -38.4267578125 387 58 c 2
 387 511.010742188 l 1
 615 511.010742188 l 1
 615 76.005859375 l 2xf8
EndSplineSet
EndChar

StartChar: y
Encoding: 121 121 71
Width: 600
Flags: W
HStem: -179.994 21G<160 311.596> 491.011 20G<1 258.673 462.97 600>
LayerCount: 2
Fore
SplineSet
472 511.010742188 m 5
 600 511.010742188 l 5
 303 -179.994140625 l 1
 160 -179.994140625 l 1
 472 511.010742188 l 5
251 -20 m 1
 1 511.010742188 l 1
 249 511.010742188 l 1
 395.198242188 208.727539062 l 1
 251 -20 l 1
EndSplineSet
EndChar

StartChar: z
Encoding: 122 122 72
Width: 515
Flags: W
HStem: 0 106<271.522 485> 405.011 106<20 233.478>
LayerCount: 2
Fore
SplineSet
233.477539062 405.010742188 m 1
 20 405.010742188 l 1
 20 511.010742188 l 1
 485 511.010742188 l 1
 485 438.010742188 l 1
 271.522460938 106 l 5
 485 106 l 5
 485 0 l 1
 20 0 l 1
 20 73 l 1
 233.477539062 405.010742188 l 1
EndSplineSet
EndChar

StartChar: comma
Encoding: 44 44 73
Width: 260
Flags: W
HStem: -64 255<72 114>
VStem: -10 269
LayerCount: 2
Fore
SplineSet
72 191 m 5
 259 191 l 5
 114 -64 l 5
 -10 -64 l 5
 72 191 l 5
EndSplineSet
EndChar

StartChar: plus
Encoding: 43 43 75
Width: 450
Flags: W
HStem: 316 96<15 435>
VStem: 177 96<154 574>
LayerCount: 2
Fore
SplineSet
177 154 m 1
 177 574 l 1
 273 574 l 1
 273 154 l 1
 177 154 l 1
15 412 m 5
 435 412 l 5
 435 316 l 5
 15 316 l 5
 15 412 l 5
EndSplineSet
EndChar

StartChar: slash
Encoding: 47 47 76
Width: 360
Flags: W
LayerCount: 2
Fore
SplineSet
1 -200 m 1
 255 781 l 1
 359 781 l 1
 105 -200 l 5
 1 -200 l 1
EndSplineSet
EndChar

StartChar: bar
Encoding: 124 124 77
Width: 184
Flags: W
VStem: 40 104<-200 781>
LayerCount: 2
Fore
SplineSet
40 -200 m 1
 40 781 l 1
 144 781 l 5
 144 -200 l 5
 40 -200 l 1
EndSplineSet
EndChar

StartChar: question
Encoding: 63 63 78
Width: 595
Flags: W
HStem: -10.0664 191<163.812 320.509> 623.599 115.394<116.74 285.648>
VStem: 126.5 231<25.6924 144.798> 313.676 257.086<481.699 596.702>
LayerCount: 2
Fore
SplineSet
126.5 84.93359375 m 0xe0
 126.5 143.600585938 171.611328125 180.93359375 242.5 180.93359375 c 0
 312.77734375 180.93359375 357.5 143.600585938 357.5 84.93359375 c 0
 357.5 26.8779296875 312.77734375 -10.06640625 242.5 -10.06640625 c 0
 171.611328125 -10.06640625 126.5 26.8779296875 126.5 84.93359375 c 0xe0
210 623.598632812 m 0
 276.422362962 623.598632812 313.67578125 593 313.67578125 542 c 0
 313.67578125 493.016179572 290.098286533 473.93352013 240.520507812 438.80078125 c 0
 165.775191887 385.833348366 154 330.315757801 154 230 c 1
 321.573242188 230 l 1
 321.573242188 287.763737448 334.263947754 308.617132287 418.399414062 344.4375 c 0
 511.604534379 384.119239806 570.76171875 427.428023846 570.76171875 524.010742188 c 0xd0
 570.76171875 653.270507812 469 738.9921875 275.548828125 738.9921875 c 0
 102.26953125 738.9921875 15.1796875 670.796875 15.1796875 670.796875 c 1
 51.3955078125 570.754882812 l 1
 51.3955078125 570.754882812 118.442382812 623.598632812 210 623.598632812 c 0
EndSplineSet
EndChar

StartChar: parenleft
Encoding: 40 40 79
Width: 363
Flags: W
HStem: -200.066 86.3506<274.439 347.697> 694.642 86.3506<274.2 347.697>
VStem: 25 113.487<83.3935 490.346>
LayerCount: 2
Fore
SplineSet
348 -200.06640625 m 0
 140.126126126 -200.06640625 25 -11.845031082 25 283.93359375 c 0
 25 587.69133714 140.00003278 780.992195952 347.697265625 780.9921875 c 1
 348 694.641601562 l 1
 212.336132056 694.641601562 138.487304688 536.305095383 138.487304688 283.704101562 c 4
 138.487304688 39.3677843879 212.242119415 -113.715820312 347.697265625 -113.715820312 c 0
 348 -200.06640625 l 0
EndSplineSet
EndChar

StartChar: ampersand
Encoding: 38 38 80
Width: 773
Flags: W
HStem: -9.99805 117.938<319.689 478.159> 321.737 101.744<339.32 486.46 636.46 758.772> 621.599 117.394<245.14 485.691>
VStem: 25 260.084<142.228 280.071> 44.8408 257.086<458.76 589.444> 519.037 161.882<146.92 320.525>
LayerCount: 2
Fore
SplineSet
424.772460938 423.481445312 m 2xec
 758.772460938 423.481445312 l 1
 758.911132812 322 l 1
 424.772460938 321.737304688 l 2
 318.311138744 321.653606233 285.083984375 275.270507812 285.083984375 209 c 0
 285.083984375 140.040039062 325.389058451 107.939453125 402.911132812 107.939453125 c 0
 486.202886493 107.939453125 519.037109375 156.883338166 519.037109375 225.124023438 c 0
 519.037109375 300.005164607 486.459960938 355 486.459960938 355 c 1
 636.459960938 363 l 5
 636.459960938 363 680.918945312 306.123523728 680.918945312 215.223632812 c 4
 680.918945312 100.780079605 605.991425297 -9.998046875 370 -9.998046875 c 0
 152.205463248 -9.998046875 25 58.681640625 25 198 c 0xf4
 25 348 173.748046875 375.697265625 173.748046875 375.697265625 c 1
 173.748046875 375.697265625 44.8408203125 415 44.8408203125 535.868164062 c 0
 44.8408203125 670.857421875 159.369140625 738.9921875 330.911132812 738.9921875 c 0
 496.854492188 738.9921875 591.280273438 670.796875 591.280273438 670.796875 c 1
 555.064453125 570.754882812 l 1
 555.064453125 570.754882812 495.46875 621.598632812 411.911132812 621.598632812 c 0
 343.426757812 621.598632812 301.926757812 591.552734375 301.926757812 524.05859375 c 0
 301.926757812 458.360351562 341.061523438 423.481445312 424.772460938 423.481445312 c 2xec
EndSplineSet
EndChar

StartChar: less
Encoding: 60 60 81
Width: 450
Flags: W
LayerCount: 2
Fore
SplineSet
15 422 m 1
 435 562 l 1
 435 460 l 1
 148 364 l 1
 435 268 l 5
 435 166 l 1
 15 306 l 1
 15 422 l 1
EndSplineSet
EndChar

StartChar: greater
Encoding: 62 62 82
Width: 450
Flags: W
LayerCount: 2
Fore
SplineSet
435 422 m 1
 435 306 l 1
 15 166 l 1
 15 269 l 5
 302 364 l 1
 15 459 l 1
 15 562 l 1
 435 422 l 1
EndSplineSet
EndChar

StartChar: underscore
Encoding: 95 95 84
Width: 607
Flags: W
HStem: -103 103<15 592>
LayerCount: 2
Fore
SplineSet
15 0 m 5
 592 0 l 5
 592 -103 l 5
 15 -103 l 5
 15 0 l 5
EndSplineSet
EndChar

StartChar: asciicircum
Encoding: 94 94 85
Width: 457
Flags: W
HStem: 470 311
LayerCount: 2
Fore
SplineSet
178 781 m 1
 279 781 l 1
 456 470 l 1
 351 470 l 1
 228.5 697.567382812 l 5
 105 470 l 1
 1 470 l 1
 178 781 l 1
EndSplineSet
EndChar

StartChar: bracketleft
Encoding: 91 91 86
Width: 342
Flags: W
HStem: -200 82<144 327> 699 82<144 327>
VStem: 40 104<-118 699>
LayerCount: 2
Fore
SplineSet
144 699 m 5
 144 -118 l 5
 327 -118 l 1
 327 -200 l 1
 40 -200 l 1
 40 781 l 1
 327 781 l 1
 327 699 l 1
 144 699 l 5
EndSplineSet
EndChar

StartChar: bracketright
Encoding: 93 93 87
Width: 342
Flags: W
HStem: -200 82<15 198> 699 82<15 198>
VStem: 198 104<-118 699>
LayerCount: 2
Fore
SplineSet
198 699 m 5
 15 699 l 1
 15 781 l 1
 302 781 l 1
 302 -200 l 1
 15 -200 l 1
 15 -118 l 1
 198 -118 l 5
 198 699 l 5
EndSplineSet
EndChar

StartChar: braceleft
Encoding: 123 123 88
Width: 422
Flags: W
HStem: -210 81<217.517 384.259> 276 76<15 141.5> 711 80<221.881 385.346>
VStem: 98 104<-113.336 29.0561 561.493 692.275> 166 94<98.8924 249.832 369.35 495.034>
LayerCount: 2
Fore
SplineSet
204 641.06640625 m 0xe8
 204 573.658581648 260 507.203411143 260 426 c 0
 260 347.504617358 200 312 200 312 c 1
 200 312 260 254.010101268 260 172 c 0xe8
 260 69.3883669599 202 19.2250842047 202 -58 c 0
 202 -109.377029853 227.554894721 -129 282 -129 c 0
 339.863864692 -129 392 -104 392 -104 c 5
 407 -177 l 5
 407 -177 357.759986523 -210 260.174804688 -210 c 0
 153.052318764 -210 98 -158.265068519 98 -57.59765625 c 0xf0
 98 28.4342012461 166 113.834591952 166 178 c 0
 166 235.407070887 137.005050634 276 96 276 c 2
 15 276 l 1
 15 352 l 1
 96 352 l 2
 137.005050634 352 166 378.509667992 166 416 c 0
 166 480.730926984 100 562.382387429 100 647.200195312 c 0
 100 742.595224101 155.788220979 791 265.734375 791 c 0
 360.135134229 791 407 758 407 758 c 5
 392 686 l 5
 392 686 348.661288015 711 287.37109375 711 c 0
 232.016131115 711 204 687.499423916 204 641.06640625 c 0xe8
EndSplineSet
EndChar

StartChar: dollar
Encoding: 36 36 89
Width: 625
Flags: W
HStem: -110 170<256 354> -10 107.462<131.079 335.669> 626.659 112.462<292.42 487.126> 657 184.008<256 354>
VStem: 25 244.312<441.729 602.155> 256 98<-110 60 657 841.008> 357.711 248.182<123.952 286.82>
LayerCount: 2
Fore
SplineSet
354 60 m 1x86
 354 -110 l 1
 256 -110 l 1
 256 60 l 1
 354 60 l 1x86
354 657 m 1x16
 256 657 l 1
 256 841.0078125 l 1
 354 841.0078125 l 1
 354 657 l 1x16
EndSplineSet
Refer: 25 83 N 1 0 0 1 0 0 2
EndChar

StartChar: percent
Encoding: 37 37 90
Width: 973
Flags: W
HStem: -10 86.3506<705.494 765.91> 0 21G<182 316.352> 312.649 86.3506<705.494 765.91> 329.934 86.3506<207.494 267.91> 652.583 86.3506<207.494 267.91> 711 20G<656.648 791>
VStem: 25 165.487<434.417 631.959> 284.513 165.487<433.708 631.959> 523 165.487<94.4833 292.026> 782.513 165.487<93.7748 292.026>
LayerCount: 2
Back
SplineSet
688.487304688 221.770507812 m 4xa3c0
 688.487304688 132.365407064 704.554336551 76.3505859375 740.697265625 76.3505859375 c 4
 769.254013406 76.3505859375 782.512695312 109.253791927 782.512695312 161.770507812 c 4
 782.512695312 254.514931637 765.766174059 312.649414062 729.697265625 312.649414062 c 4
 701.169209511 312.649414062 688.487304688 277.633265619 688.487304688 221.770507812 c 4xa3c0
523 192 m 4
 523 318.499880844 605.833018456 399 736 399 c 4
 865.555555556 399 948 318.499880844 948 192 c 4
 948 68.5552020329 865.555555556 -10 736 -10 c 4
 605.833018456 -10 523 68.5552020329 523 192 c 4
190.487304688 561.704101562 m 0
 190.487304688 472.299000814 206.554336551 416.284179688 242.697265625 416.284179688 c 0
 271.254013406 416.284179688 284.512695312 449.187385677 284.512695312 501.704101562 c 0
 284.512695312 594.448525387 267.766174059 652.583007812 231.697265625 652.583007812 c 0x1bc0
 203.169209511 652.583007812 190.487304688 617.566859369 190.487304688 561.704101562 c 0
25 531.93359375 m 0
 25 658.433474594 107.833018456 738.93359375 238 738.93359375 c 0
 367.555555556 738.93359375 450 658.433474594 450 531.93359375 c 0
 450 408.488795783 367.555555556 329.93359375 238 329.93359375 c 0
 107.833018456 329.93359375 25 408.488795783 25 531.93359375 c 0
182 0 m 1x47c0
 670 731 l 1
 791 731 l 5
 303 0 l 5
 182 0 l 1x47c0
EndSplineSet
Fore
SplineSet
688.487304688 191.770507812 m 4xa3c0
 688.487304688 120.809599496 703.015642442 76.3505859375 735.697265625 76.3505859375 c 4
 767.668631884 76.3505859375 782.512695312 120.809599496 782.512695312 191.770507812 c 4
 782.512695312 266.074098628 767.668631884 312.649414062 735.697265625 312.649414062 c 4
 703.015642442 312.649414062 688.487304688 266.074098628 688.487304688 191.770507812 c 4xa3c0
523 192 m 4
 523 318.499880844 605.833018456 399 736 399 c 4
 865.555555556 399 948 318.499880844 948 192 c 4
 948 68.5552020329 865.555555556 -10 736 -10 c 4
 605.833018456 -10 523 68.5552020329 523 192 c 4
190.487304688 531.704101562 m 0
 190.487304688 460.743193246 205.015642442 416.284179688 237.697265625 416.284179688 c 0
 269.668631884 416.284179688 284.512695312 460.743193246 284.512695312 531.704101562 c 0
 284.512695312 606.007692378 269.668631884 652.583007812 237.697265625 652.583007812 c 0x1bc0
 205.015642442 652.583007812 190.487304688 606.007692378 190.487304688 531.704101562 c 0
25 531.93359375 m 0
 25 658.433474594 107.833018456 738.93359375 238 738.93359375 c 0
 367.555555556 738.93359375 450 658.433474594 450 531.93359375 c 0
 450 408.488795783 367.555555556 329.93359375 238 329.93359375 c 0
 107.833018456 329.93359375 25 408.488795783 25 531.93359375 c 0
182 0 m 1x47c0
 670 731 l 1
 791 731 l 5
 303 0 l 5
 182 0 l 1x47c0
EndSplineSet
EndChar

StartChar: braceright
Encoding: 125 125 91
Width: 422
Flags: W
HStem: -210 81<37.7406 204.483> 276 76<280.5 407> 711 80<36.6542 200.119>
VStem: 162 94<98.8926 249.832 369.35 495.034> 220 104<-113.335 29.0562 561.493 692.275>
LayerCount: 2
Fore
SplineSet
218 641.06640625 m 0xf0
 218 687.499023438 189.983398438 711 134.62890625 711 c 0
 73.3388671875 711 30 686 30 686 c 5
 15 758 l 5
 15 758 61.865234375 791 156.265625 791 c 0
 266.211914062 791 322 742.595703125 322 647.200195312 c 0
 322 562.3828125 256 480.73046875 256 416 c 0
 256 378.509765625 284.995117188 352 326 352 c 2
 407 352 l 1
 407 276 l 1
 326 276 l 2
 284.995117188 276 256 235.407226562 256 178 c 0xf0
 256 113.834960938 324 28.4345703125 324 -57.59765625 c 0
 324 -158.264648438 268.947265625 -210 161.825195312 -210 c 0
 64.240234375 -210 15 -177 15 -177 c 5
 30 -104 l 5
 30 -104 82.1357421875 -129 140 -129 c 0
 194.4453125 -129 220 -109.376953125 220 -58 c 0xe8
 220 19.224609375 162 69.388671875 162 172 c 0
 162 254.009765625 222 312 222 312 c 1
 222 312 162 347.504882812 162 426 c 0
 162 507.203125 218 573.658203125 218 641.06640625 c 0xf0
EndSplineSet
EndChar

StartChar: numbersign
Encoding: 35 35 92
Width: 699
Flags: W
HStem: 0 21G<92 200.022 356 464.022> 181 97<14 644> 450 97<54 684> 711.008 20G<234.978 343 498.978 607>
LayerCount: 2
Fore
SplineSet
14 278 m 1
 644 278 l 1
 644 181 l 1
 14 181 l 1
 14 278 l 1
54 547 m 1
 684 547 l 1
 684 450 l 1
 54 450 l 1
 54 547 l 1
356 0 m 1
 503 731.0078125 l 1
 607 731.0078125 l 1
 460 0 l 1
 356 0 l 1
92 0 m 1
 239 731.0078125 l 1
 343 731.0078125 l 1
 196 0 l 1
 92 0 l 1
EndSplineSet
EndChar

StartChar: asterisk
Encoding: 42 42 93
Width: 400
Flags: W
HStem: 718.992 20G<151.534 248.905>
LayerCount: 2
Fore
SplineSet
248.905273438 738.9921875 m 1
 240.896484375 602.151367188 l 1
 361.440429688 654.549804688 l 1
 395.440429688 573.369140625 l 1
 265.896484375 529.767578125 l 1
 355.905273438 427.006835938 l 5
 282.75390625 368.916992188 l 5
 200.219726562 487.075195312 l 1
 117.685546875 368.916992188 l 1
 44.5341796875 427.006835938 l 1
 134.54296875 529.767578125 l 1
 5 573.369140625 l 1
 39 654.549804688 l 1
 159.54296875 602.151367188 l 1
 151.534179688 738.9921875 l 1
 248.905273438 738.9921875 l 1
EndSplineSet
EndChar

StartChar: asciitilde
Encoding: 126 126 94
Width: 506
VWidth: 999
Flags: W
HStem: 290 90<280.951 405.19> 353 89<95.6286 226.339>
LayerCount: 2
Fore
SplineSet
501 375 m 1x80
 501 375 441.196721311 290 349 290 c 0x80
 256.923076924 290 226.23076923 353 159 353 c 4
 104.47826087 353 60 302 60 302 c 1
 5 375 l 1
 5 375 71.0327868853 442 157 442 c 4x40
 247.615384616 442 285.615384616 380 347 380 c 0
 399.846153846 380 442 437 442 437 c 1
 501 375 l 1x80
EndSplineSet
EndChar
